<?xml version="1.0" encoding="utf-8"?>
<!-- Generator: Adobe Illustrator 22.0.1, SVG Export Plug-In . SVG Version: 6.00 Build 0)  -->
<svg version="1.1" id="Layer_1" xmlns="http://www.w3.org/2000/svg" xmlns:xlink="http://www.w3.org/1999/xlink" x="0px" y="0px"
	 viewBox="0 0 60 60" style="enable-background:new 0 0 60 60;" xml:space="preserve">
<style type="text/css">
	.st0{fill:none;stroke:#FCA20A;stroke-width:2;stroke-linecap:round;stroke-linejoin:round;}
</style>
<path class="st0" d="M2,31.6h3.7c0,0,3.5,7.1,5.3,0s3.7-3.6,4.1,0c0.4,3.6,2.7,14.2,3.5-0.5c0.8-14.7,1.8-41.5,3.9,0
	s4.1,5.9,4.3,0.7s1.4-28.9,3.3,0s4.1,0,4.1,0s1.8-11.8,3.9,0c2.1,11.8,3.1,0.5,3.1,0.5s2.1-7.3,4.7,0c2.5,7.3,4.1-0.7,4.1-0.7
	s1.2-1.9,2.7,0H58"/>
</svg>
